Coordinates
nRows=8
nColumns=38

# SIMM Motion File Header:
name Coordinates
datacolumns 38
datarows 8
otherdata 1
range 0.68054000000000003000 0.68754000000000004000

Units are S.I. units (second, meters, Newtons, ...)
Angles are in degrees.

endheader
time	pelvis_tilt	pelvis_list	pelvis_rotation	pelvis_tx	pelvis_ty	pelvis_tz	hip_flexion_r	hip_adduction_r	hip_rotation_r	knee_angle_r	ankle_angle_r	subtalar_angle_r	mtp_angle_r	hip_flexion_l	hip_adduction_l	hip_rotation_l	knee_angle_l	ankle_angle_l	subtalar_angle_l	mtp_angle_l	lumbar_extension	lumbar_bending	lumbar_rotation	arm_flex_r	arm_add_r	arm_rot_r	elbow_flex_r	pro_sup_r	wrist_flex_r	wrist_dev_r	arm_flex_l	arm_add_l	arm_rot_l	elbow_flex_l	pro_sup_l	wrist_flex_l	wrist_dev_l
      0.68054000000000003000	     -6.40312734672871820000	     -1.65713948446407880000	      2.12912446765762640000	      1.12828194689393110000	      0.98160154678143852000	     -0.30876865626360384000	     57.50723241709467700000	      1.64755627494046330000	     -3.50035171469195380000	   -105.27912283449206000000	     -3.72968151237829250000	     -0.00000000000020123930	      0.00000000000032615511	     -2.52607144605390710000	      3.63898220678420790000	      5.34480903548845540000	    -28.44887349965628000000	      2.25162731722049660000	     -0.00000000000001906943	      0.00000000000003046600	     -7.11109817604828010000	      0.44167627477698512000	    -13.47650856219047300000	    -41.07788970335650400000	    -12.70045408454417000000	    -18.63881626056002000000	     59.47400393229477800000	     62.59392961936389100000	     -0.00000000000001625761	     -0.00000000000005471650	     -9.10701349781210650000	    -21.27789751799953400000	     -4.12959321380981860000	    135.38980421293977000000	     93.87005094024226500000	      0.00000000000000013368	     -0.00000000000004135257
      0.68154000000000003000	     -6.44035128668080950000	     -1.85056527160670380000	      1.99062316944168160000	      1.12870682513742480000	      0.98242629065273535000	     -0.30878352934311720000	     57.59806497087267000000	      1.87915640252959530000	     -3.55339988030112860000	   -104.53530572505562000000	     -3.72936359586253550000	     -0.00000000000020177566	      0.00000000000032703498	     -2.93958681487715130000	      3.41434197913649040000	      5.26659437507196420000	    -28.08676764121059900000	      1.48972996628753340000	     -0.00000000000001965111	      0.00000000000003182705	     -7.00022851992739970000	      0.70232438791157203000	    -13.47396630315292900000	    -41.23816665646861400000	    -12.75420734395455100000	    -18.78544839221061800000	     59.63068437905491900000	     62.53275696261477600000	     -0.00000000000001626172	     -0.00000000000005487519	     -9.06264081276750840000	    -21.15324852548301800000	     -4.02647752001570500000	    135.78327043360011000000	     93.85254150643710600000	      0.00000000000000014252	     -0.00000000000004153711
      0.68254000000000004000	     -6.48086156643660520000	     -2.04548981567514070000	      1.84832080676782780000	      1.12913714968518280000	      0.98325060621561744000	     -0.30879134039168393000	     57.68574722835327900000	      2.11506700933445660000	     -3.60611159726875070000	   -103.78476259645076000000	     -3.73167772661733690000	     -0.00000000000020230997	      0.00000000000032791538	     -3.34976684152419500000	      3.18882483667683390000	      5.17988417412288000000	    -27.72147617691319600000	      0.71706431218462063000	     -0.00000000000002023664	      0.00000000000003322910	     -6.88630614570641340000	      0.96463003078857690000	    -13.46729885381774000000	    -41.39984841393508900000	    -12.80915436272040400000	    -18.92873451822814700000	     59.78922417452747600000	     62.46799731822997600000	     -0.00000000000001626938	     -0.00000000000005503464	     -9.02299693867305840000	    -21.02867998902265300000	     -3.91955965228290950000	    136.17571943913833000000	     93.83253125069883500000	      0.00000000000000015040	     -0.00000000000004171412
      0.68354000000000004000	     -6.52481814025103550000	     -2.24177625654871400000	      1.70228746458467510000	      1.12957255694572960000	      0.98407384400312425000	     -0.30879204283226447000	     57.77048573278719300000	      2.35517640374656610000	     -3.65831646804186410000	   -103.02755657541587000000	     -3.73665599376358810000	     -0.00000000000020284733	      0.00000000000032879696	     -3.75632628598154650000	      2.96265962768981290000	      5.08480246337479520000	    -27.35321879910075200000	     -0.06556814752753453700	     -0.00000000000002084454	      0.00000000000003467489	     -6.76922669513956880000	      1.22846516529592090000	    -13.45657715332374600000	    -41.56297625301375100000	    -12.86521819237157200000	    -19.06874323500033700000	     59.94954828006173400000	     62.39994134395156100000	     -0.00000000000001628086	     -0.00000000000005519484	     -8.98794599650168810000	    -20.90425074016138800000	     -3.80886783223815330000	    136.56697372165488000000	     93.81026682730970400000	      0.00000000000000015843	     -0.00000000000004189542
      0.68454000000000004000	     -6.57237324242474050000	     -2.43927059263664740000	      1.55260075872277060000	      1.13001267948023300000	      0.98489537073410682000	     -0.30878561396218307000	     57.85247710927436800000	      2.59935223049216320000	     -3.70983556670111360000	   -102.26375254248076000000	     -3.74432891372459850000	     -0.00000000000020338169	      0.00000000000032968032	     -4.15898435173605030000	      2.73609340748483240000	      4.98150703699729470000	    -26.98223090921834500000	     -0.85734570833894996000	     -0.00000000000002145491	      0.00000000000003606625	     -6.64889034513797310000	      1.49368680659449950000	    -13.44188004195821600000	    -41.72758877838439400000	    -12.92231937770074200000	    -19.20554651145081200000	     60.11157999503466700000	     62.32888527429975800000	     -0.00000000000001629217	     -0.00000000000005535426	     -8.95734779851686720000	    -20.78001908081712300000	     -3.69444217208024690000	    136.95684459185824000000	     93.78600629616143200000	      0.00000000000000016538	     -0.00000000000004209458
      0.68554000000000004000	     -6.62366948794180120000	     -2.63780173518373260000	      1.39934591223262330000	      1.13045714661646260000	      0.98571457258527584000	     -0.30877205551517078000	     57.93190613217225100000	      2.84744145639565230000	     -3.76048189815510360000	   -101.49341737235498000000	     -3.75472525923653190000	     -0.00000000000020391843	      0.00000000000033056416	     -4.55746666032626900000	      2.50939087529363740000	      4.87018958333113170000	    -26.60876388446697800000	     -1.65742269453720880000	     -0.00000000000002206005	      0.00000000000003744559	     -6.52520356258543900000	      1.76013693424328580000	    -13.42329390705728700000	    -41.89372156450165400000	    -12.98037585835154000000	    -19.33921944533642500000	     60.27524098389022100000	     62.25512929318117700000	     -0.00000000000001630204	     -0.00000000000005551272	     -8.93105769199211430000	    -20.65604299287355900000	     -3.57633430672743560000	    137.34513213119004000000	     93.76001825853666100000	      0.00000000000000017280	     -0.00000000000004230496
      0.68654000000000004000	     -6.67883739847328160000	     -2.83717391507109480000	      1.24261543657558730000	      1.13090558361014430000	      0.98653085726195400000	     -0.30875139377438104000	     58.00894452839608600000	      3.09926549688413160000	     -3.81005448418175340000	   -100.71662297124686000000	     -3.76787199848629230000	     -0.00000000000020445577	      0.00000000000033144707	     -4.95150812198067230000	      2.28284209974911030000	      4.75107640865814850000	    -26.23308312479028700000	     -2.46493995023021520000	     -0.00000000000002267254	      0.00000000000003886712	     -6.39808181033496750000	      2.02763372341317630000	    -13.40091256830994300000	    -42.06140650629603800000	    -13.03930130492368600000	    -19.46983991575858800000	     60.44045109163156600000	     62.17897693996255300000	     -0.00000000000001630974	     -0.00000000000005567055	     -8.90892621656235310000	    -20.53238242495548200000	     -3.45460714436925680000	    137.73162604910846000000	     93.73257912418304700000	      0.00000000000000018017	     -0.00000000000004251442
      0.68754000000000004000	     -6.73799395368406360000	     -3.03715671103286010000	      1.08250915329197710000	      1.13135760989652100000	      0.98734365403132729000	     -0.30872368023925562000	     58.08375137262050500000	      3.35461340386154830000	     -3.85833076235913410000	    -99.93345034929032500000	     -3.78379424568327320000	     -0.00000000000020499241	      0.00000000000033233031	     -5.34085430534031860000	      2.05677296744661530000	      4.62443027366644980000	    -25.85546666949877800000	     -3.27903250429868760000	     -0.00000000000002328665	      0.00000000000004031061	     -6.26745105613157530000	      2.29596005364740650000	    -13.37483766166251100000	    -42.23067115983027300000	    -13.09900300493544700000	    -19.59748818775699400000	     60.60712796283559800000	     62.10073487865967900000	     -0.00000000000001631742	     -0.00000000000005582820	     -8.89079895863443780000	    -20.40910213244738000000	     -3.32933471800114720000	    138.11610680421563000000	     93.70396989916727600000	      0.00000000000000018741	     -0.00000000000004272567
